<?xml version="1.0" encoding="UTF-8" standalone="no"?><svg xmlns="http://www.w3.org/2000/svg" xmlns:xlink="http://www.w3.org/1999/xlink" contentScriptType="application/ecmascript" contentStyleType="text/css" height="603px" preserveAspectRatio="none" style="width:1214px;height:603px;" version="1.1" viewBox="0 0 1214 603" width="1214px" zoomAndPan="magnify"><defs/><g><!--MD5=[a6f11bb19cee6b13000111f5ad685e8b]
cluster Dependencies--><path d="M46,24 L140,24 A4.5,4.5 0 0 1 143,27 L150,44.4844 L150,44.4844 A3,3 0 0 1 153,47.4844 L153,153 A3,3 0 0 1 150,156 L46,156 A3,3 0 0 1 43,153 L43,27 A3,3 0 0 1 46,24 " fill="#FFFFFF" style="stroke: #000000; stroke-width: 1.5;"/><line style="stroke: #000000; stroke-width: 1.5;" x1="43" x2="150" y1="44.4844" y2="44.4844"/><text fill="#000000" font-family="Tahoma, sans-serif" font-size="12" font-weight="bold" lengthAdjust="spacingAndGlyphs" textLength="94" x="47" y="38.0059">Dependencies</text><!--MD5=[536bdb98601ab655d339a8e90e9758e1]
entity fs-extra--><rect fill="#F8F8F8" height="34.4844" rx="3" ry="3" style="stroke: #383838; stroke-width: 1.0;" width="64" x="66" y="57"/><rect fill="#F8F8F8" height="5" style="stroke: #383838; stroke-width: 1.0;" width="10" x="61" y="62"/><rect fill="#F8F8F8" height="5" style="stroke: #383838; stroke-width: 1.0;" width="10" x="61" y="81.4844"/><text fill="#000000" font-family="Tahoma, sans-serif" font-size="12" lengthAdjust="spacingAndGlyphs" textLength="44" x="76" y="79.0059">fs-extra</text><!--MD5=[f40e24e52c07cf7c5af50ede07f94876]
entity jsonfile--><rect fill="#F8F8F8" height="34.4844" rx="3" ry="3" style="stroke: #383838; stroke-width: 1.0;" width="63" x="66.5" y="106"/><rect fill="#F8F8F8" height="5" style="stroke: #383838; stroke-width: 1.0;" width="10" x="61.5" y="111"/><rect fill="#F8F8F8" height="5" style="stroke: #383838; stroke-width: 1.0;" width="10" x="61.5" y="130.4844"/><text fill="#000000" font-family="Tahoma, sans-serif" font-size="12" lengthAdjust="spacingAndGlyphs" textLength="43" x="76.5" y="128.0059">jsonfile</text><!--MD5=[62b57897b0d236b20f2f7a7a39b2c031]
entity _AbstractClientTest--><rect fill="#F8F8F8" height="34.4844" rx="3" ry="3" style="stroke: #000000; stroke-width: 0.5;" width="142" x="27" y="448"/><text fill="#000000" font-family="Tahoma, sans-serif" font-size="12" font-weight="bold" lengthAdjust="spacingAndGlyphs" textLength="122" x="37" y="470.0059">AbstractClientTest</text><!--MD5=[d703c32006df419ebcb05ed36180c275]
entity _client_types--><rect fill="#F8F8F8" height="34.4844" rx="3" ry="3" style="stroke: #000000; stroke-width: 0.5;" width="85" x="1081.5" y="368"/><text fill="#000000" font-family="Tahoma, sans-serif" font-size="12" lengthAdjust="spacingAndGlyphs" textLength="65" x="1091.5" y="390.0059">client.types</text><ellipse cx="98.1823" cy="192.8365" fill="#F8F8F8" rx="92.1823" ry="20.8365" style="stroke: #383838; stroke-width: 0.5;"/><text fill="#000000" font-family="Tahoma, sans-serif" font-size="12" font-weight="bold" lengthAdjust="spacingAndGlyphs" textLength="163" x="16.6823" y="196.5786">connectionFailed.builder</text><ellipse cx="98.093" cy="248.1186" fill="#F8F8F8" rx="83.593" ry="19.1186" style="stroke: #383838; stroke-width: 0.5;"/><text fill="#000000" font-family="Tahoma, sans-serif" font-size="12" font-weight="bold" lengthAdjust="spacingAndGlyphs" textLength="144" x="26.093" y="251.8608">invalidPayload.builder</text><ellipse cx="97.8341" cy="302.0668" fill="#F8F8F8" rx="85.8341" ry="19.5668" style="stroke: #383838; stroke-width: 0.5;"/><text fill="#000000" font-family="Tahoma, sans-serif" font-size="12" font-weight="bold" lengthAdjust="spacingAndGlyphs" textLength="149" x="23.3341" y="305.809">invalidProtocol.builder</text><!--MD5=[88f62627aefc44007bcce9c97b715163]
entity _MercuryClientFactory--><rect fill="#F8F8F8" height="34.4844" rx="3" ry="3" style="stroke: #000000; stroke-width: 0.5;" width="138" x="256.5" y="448"/><text fill="#000000" font-family="Tahoma, sans-serif" font-size="12" lengthAdjust="spacingAndGlyphs" textLength="118" x="266.5" y="470.0059">MercuryClientFactory</text><!--MD5=[193cf5238c5c6b4b84facc021fede5ee]
entity _MercurySocketIoClient--><rect fill="#F8F8F8" height="34.4844" rx="3" ry="3" style="stroke: #000000; stroke-width: 0.5;" width="149" x="865" y="478"/><text fill="#000000" font-family="Tahoma, sans-serif" font-size="12" lengthAdjust="spacingAndGlyphs" textLength="129" x="875" y="500.0059">MercurySocketIoClient</text><!--MD5=[2ca5b02386a61a728003216702447327]
entity _MercuryTestClient--><rect fill="#F8F8F8" height="34.4844" rx="3" ry="3" style="stroke: #000000; stroke-width: 0.5;" width="121" x="499" y="503"/><text fill="#000000" font-family="Tahoma, sans-serif" font-size="12" lengthAdjust="spacingAndGlyphs" textLength="101" x="509" y="525.0059">MercuryTestClient</text><ellipse cx="325.6673" cy="192.8335" fill="#F8F8F8" rx="104.6673" ry="23.3335" style="stroke: #383838; stroke-width: 0.5;"/><text fill="#000000" font-family="Tahoma, sans-serif" font-size="12" font-weight="bold" lengthAdjust="spacingAndGlyphs" textLength="190" x="230.6673" y="196.5756">missingTestCacheDir.builder</text><!--MD5=[7256e4323b61cc4028bda5204b372a20]
entity _MutableContractClient--><rect fill="#F8F8F8" height="34.4844" rx="3" ry="3" style="stroke: #000000; stroke-width: 0.5;" width="145" x="689" y="478"/><text fill="#000000" font-family="Tahoma, sans-serif" font-size="12" lengthAdjust="spacingAndGlyphs" textLength="125" x="699" y="500.0059">MutableContractClient</text><ellipse cx="325.7009" cy="250.9402" fill="#F8F8F8" rx="82.7009" ry="18.9402" style="stroke: #383838; stroke-width: 0.5;"/><text fill="#000000" font-family="Tahoma, sans-serif" font-size="12" font-weight="bold" lengthAdjust="spacingAndGlyphs" textLength="142" x="254.7009" y="254.6824">notConnected.builder</text><ellipse cx="325.7284" cy="299.9457" fill="#F8F8F8" rx="62.7284" ry="14.9457" style="stroke: #383838; stroke-width: 0.5;"/><text fill="#000000" font-family="Tahoma, sans-serif" font-size="12" font-weight="bold" lengthAdjust="spacingAndGlyphs" textLength="95" x="278.2284" y="303.6879">release.config</text><ellipse cx="1124.1593" cy="495.2319" fill="#F8F8F8" rx="79.1593" ry="18.2319" style="stroke: #383838; stroke-width: 0.5;"/><text fill="#000000" font-family="Tahoma, sans-serif" font-size="12" lengthAdjust="spacingAndGlyphs" textLength="134" x="1057.1593" y="498.974">socketIoEventUtil.utility</text><!--MD5=[b193370281563f99c6776349b0620c58]
entity _SpruceError--><rect fill="#F8F8F8" height="34.4844" rx="3" ry="3" style="stroke: #000000; stroke-width: 0.5;" width="87" x="1080.5" y="543"/><text fill="#000000" font-family="Tahoma, sans-serif" font-size="12" lengthAdjust="spacingAndGlyphs" textLength="67" x="1090.5" y="565.0059">SpruceError</text><ellipse cx="325.3492" cy="404.242" fill="#F8F8F8" rx="17.8492" ry="13.242" style="stroke: #383838; stroke-width: 0.5;"/><text fill="#000000" font-family="Tahoma, sans-serif" font-size="12" font-weight="bold" lengthAdjust="spacingAndGlyphs" textLength="21" x="314.8492" y="407.9842">src</text><!--MD5=[519199a6eafb04492722da76567bd409]
entity _src_constants--><rect fill="#F8F8F8" height="34.4844" rx="3" ry="3" style="stroke: #000000; stroke-width: 0.5;" width="101" x="509" y="423"/><text fill="#000000" font-family="Tahoma, sans-serif" font-size="12" lengthAdjust="spacingAndGlyphs" textLength="81" x="519" y="445.0059">src/constants</text><!--MD5=[750a3f6043688076ea699532d5a2f17d]
entity _tests_constants--><rect fill="#F8F8F8" height="34.4844" rx="3" ry="3" style="stroke: #000000; stroke-width: 0.5;" width="112" x="42" y="497"/><text fill="#000000" font-family="Tahoma, sans-serif" font-size="12" lengthAdjust="spacingAndGlyphs" textLength="92" x="52" y="519.0059">tests/constants</text><ellipse cx="559.7352" cy="192.847" fill="#F8F8F8" rx="64.7352" ry="15.347" style="stroke: #383838; stroke-width: 0.5;"/><text fill="#000000" font-family="Tahoma, sans-serif" font-size="12" font-weight="bold" lengthAdjust="spacingAndGlyphs" textLength="100" x="509.7352" y="196.5892">timeout.builder</text><ellipse cx="559.6216" cy="246.1243" fill="#F8F8F8" rx="98.6216" ry="22.1243" style="stroke: #383838; stroke-width: 0.5;"/><text fill="#000000" font-family="Tahoma, sans-serif" font-size="12" font-weight="bold" lengthAdjust="spacingAndGlyphs" textLength="177" x="471.1216" y="249.8665">unexpectedPayload.builder</text><!--MD5=[7f6140350dc3cbe54278039ffb13dce5]
link _AbstractClientTest to _client_types--><path d="M118.58,447.872 C141.462,428.891 181.276,398.988 221,384 C362.641,330.559 407.113,338 558.5,338 C558.5,338 558.5,338 762.5,338 C875.839,338 1007.55,361.126 1076.1,374.934 " fill="none" id="_AbstractClientTest-&gt;_client_types" style="stroke: #000000; stroke-width: 1.0;"/><polygon fill="#000000" points="1081.32,375.994,1073.2856,370.2976,1076.4182,375.0079,1071.7079,378.1405,1081.32,375.994" style="stroke: #000000; stroke-width: 1.0;"/><!--MD5=[576dcc522ec4f5701aee1ff15582daa1]
link _AbstractClientTest to _MercuryClientFactory--><path d="M169.114,465 C195.173,465 224.797,465 251.139,465 " fill="none" id="_AbstractClientTest-&gt;_MercuryClientFactory" style="stroke: #000000; stroke-width: 1.0;"/><polygon fill="#000000" points="256.362,465,247.362,461,251.362,465,247.362,469,256.362,465" style="stroke: #000000; stroke-width: 1.0;"/><!--MD5=[c9c8bb90704165dbac8514fb7bc2acbc]
link _AbstractClientTest to _SpruceError--><path d="M161.687,482.114 C171.178,484.737 180.852,487.427 190,490 C353.475,535.9794 388.682,591 558.5,591 C558.5,591 558.5,591 762.5,591 C874.844,591 1006.16,575.8708 1075.11,566.7509 " fill="none" id="_AbstractClientTest-&gt;_SpruceError" style="stroke: #000000; stroke-width: 1.0;"/><polygon fill="#000000" points="1080.37,566.0507,1070.9145,563.2951,1075.4153,566.7219,1071.9884,571.2227,1080.37,566.0507" style="stroke: #000000; stroke-width: 1.0;"/><!--MD5=[75fb8d9f63d94edcc28e6ff87e26bfc5]
link _AbstractClientTest to _tests_constants--><path d="M98,482.376 C98,485.376 98,488.375 98,491.3744 " fill="none" id="_AbstractClientTest-&gt;_tests_constants" style="stroke: #000000; stroke-width: 1.0;"/><polygon fill="#000000" points="98,496.7734,102,487.7734,98,491.7734,94,487.7734,98,496.7734" style="stroke: #000000; stroke-width: 1.0;"/><!--MD5=[f023d066f9457fda4656550617e3cc07]
link _MercuryClientFactory to _client_types--><path d="M368.817,447.999 C401.117,435.324 443.03,419.607 461,416 C578.801,392.356 945.012,386.658 1075.9,385.361 " fill="none" id="_MercuryClientFactory-&gt;_client_types" style="stroke: #000000; stroke-width: 0.5;"/><polygon fill="#000000" points="1081.21,385.31,1072.176,381.3873,1076.2102,385.3529,1072.2446,389.387,1081.21,385.31" style="stroke: #000000; stroke-width: 0.5;"/><!--MD5=[c403d09ee35a084e5909b1b6350c60ae]
link _MercuryClientFactory to _MercuryTestClient--><path d="M394.54,481.13 C425.888,488.562 462.907,497.338 493.831,504.6689 " fill="none" id="_MercuryClientFactory-&gt;_MercuryTestClient" style="stroke: #000000; stroke-width: 0.5;"/><polygon fill="#000000" points="498.74,505.8326,490.9048,499.8652,493.8747,504.6797,489.0602,507.6496,498.74,505.8326" style="stroke: #000000; stroke-width: 0.5;"/><!--MD5=[39bb26623a4c1cd7d5d93d0941416970]
link _MercuryClientFactory to _MutableContractClient--><path d="M394.79,469.721 C473.157,475.138 601.382,484.001 683.308,489.664 " fill="none" id="_MercuryClientFactory-&gt;_MutableContractClient" style="stroke: #000000; stroke-width: 0.5;"/><polygon fill="#000000" points="688.636,490.032,679.9328,485.4217,683.6479,489.6877,679.3819,493.4027,688.636,490.032" style="stroke: #000000; stroke-width: 0.5;"/><!--MD5=[666a67f029b3e3dc0a077efa5c091254]
link _MercuryClientFactory to _SpruceError--><path d="M347.253,482.048 C372.388,501.5223 416.868,532.3277 461,545 C576.115,578.0543 942.388,567.2388 1074.72,562.0689 " fill="none" id="_MercuryClientFactory-&gt;_SpruceError" style="stroke: #000000; stroke-width: 0.5;"/><polygon fill="#000000" points="1080.09,561.8573,1070.9372,558.2205,1075.094,562.0573,1071.2572,566.2141,1080.09,561.8573" style="stroke: #000000; stroke-width: 0.5;"/><!--MD5=[ae442d89cb8340dc81f76df67eca0c36]
link _MercuryClientFactory to _src_constants--><path d="M394.54,457.668 C429.315,453.921 471.068,449.421 503.738,445.901 " fill="none" id="_MercuryClientFactory-&gt;_src_constants" style="stroke: #000000; stroke-width: 0.5;"/><polygon fill="#000000" points="508.9,445.345,499.5232,442.3326,503.9288,445.8808,500.3805,450.2865,508.9,445.345" style="stroke: #000000; stroke-width: 0.5;"/><!--MD5=[a407ca4dacb525668ab240bee2c872e9]
link _MercurySocketIoClient to _client_types--><path d="M969.016,477.812 C1001.828,458.035 1055.62,425.615 1090.15,404.798 " fill="none" id="_MercurySocketIoClient-&gt;_client_types" style="stroke: #000000; stroke-width: 0.5;"/><polygon fill="#000000" points="1094.68,402.067,1084.9079,403.2943,1090.3996,404.6512,1089.0427,410.1429,1094.68,402.067" style="stroke: #000000; stroke-width: 0.5;"/><!--MD5=[4249349580041a4ea9c66455cb591edd]
link _MercurySocketIoClient to socketIoEventUtil.utility--><path d="M1014.2,495 C1022.56,495 1031.12,495 1039.59,495 " fill="none" id="_MercurySocketIoClient-&gt;socketIoEventUtil.utility" style="stroke: #000000; stroke-width: 0.5;"/><polygon fill="#000000" points="1044.85,495,1035.85,491,1039.85,495,1035.85,499,1044.85,495" style="stroke: #000000; stroke-width: 0.5;"/><!--MD5=[130b457e7757d60b4bfe3fe837c4d557]
link _MercurySocketIoClient to _SpruceError--><path d="M988.45,512.078 C1015.29,521.6387 1048.65,533.5174 1075.43,543.0563 " fill="none" id="_MercurySocketIoClient-&gt;_SpruceError" style="stroke: #000000; stroke-width: 0.5;"/><polygon fill="#000000" points="1080.35,544.8091,1073.2242,538.0104,1075.6424,543.1243,1070.5285,545.5425,1080.35,544.8091" style="stroke: #000000; stroke-width: 0.5;"/><!--MD5=[a1790c08dd442ceffc5504d9c904f2b0]
link _MercuryTestClient to _MutableContractClient--><path d="M620.236,512.533 C640.163,510.0422 662.65,507.2312 683.689,504.6014 " fill="none" id="_MercuryTestClient-&gt;_MutableContractClient" style="stroke: #000000; stroke-width: 0.5;"/><polygon fill="#000000" points="688.719,503.9727,679.2925,501.1196,683.7576,504.5927,680.2845,509.0578,688.719,503.9727" style="stroke: #000000; stroke-width: 0.5;"/><!--MD5=[08bead4738fe5dae3fa7d9b2c1ae5b0f]
link _MutableContractClient to _MercurySocketIoClient--><path d="M834.086,495 C842.519,495 851.16,495 859.685,495 " fill="none" id="_MutableContractClient-&gt;_MercurySocketIoClient" style="stroke: #000000; stroke-width: 0.5;"/><polygon fill="#000000" points="864.975,495,855.975,491,859.975,495,855.975,499,864.975,495" style="stroke: #000000; stroke-width: 0.5;"/><!--MD5=[c59678d76b17a6114612c46dbc6ddcf2]
link <b>src</b> to _client_types--><path d="M343.437,401.533 C368.889,397.957 418.546,391.489 461,389 C691.404,375.494 967.681,380.715 1076.09,383.594 " fill="none" id="&lt;b&gt;src&lt;/b&gt;-&gt;_client_types" style="stroke: #000000; stroke-width: 1.0;"/><polygon fill="#000000" points="1081.13,383.73,1072.2479,379.4745,1076.132,383.5872,1072.0194,387.4713,1081.13,383.73" style="stroke: #000000; stroke-width: 1.0;"/><!--MD5=[df51f35c940dcb85cd01247f0f194def]
link <b>src</b> to _MercuryClientFactory--><path d="M325.5,417.016 C325.5,425.526 325.5,434.036 325.5,442.545 " fill="none" id="&lt;b&gt;src&lt;/b&gt;-&gt;_MercuryClientFactory" style="stroke: #000000; stroke-width: 1.0;"/><polygon fill="#000000" points="325.5,447.844,329.5,438.844,325.5,442.844,321.5,438.844,325.5,447.844" style="stroke: #000000; stroke-width: 1.0;"/><!--MD5=[396a97e98ff4f372e497879e63973553]
link <b>connectionFailed.builder</b> to <b>invalidPayload.builder</b>--><!--MD5=[f7473b6f245c9983c25fc287cd40a051]
link <b>invalidPayload.builder</b> to <b>invalidProtocol.builder</b>--><!--MD5=[2a98649daacc6515ce9f04a02c114b59]
link <b>connectionFailed.builder</b> to <b>missingTestCacheDir.builder</b>--><!--MD5=[edbfed212977d4b8b8d45b0b5c67a4a9]
link <b>missingTestCacheDir.builder</b> to <b>notConnected.builder</b>--><!--MD5=[169384f80e98ac1a277a95a46e0103a9]
link <b>notConnected.builder</b> to <b>release.config</b>--><!--MD5=[ff0da90963765827f3b0274661f06d47]
link <b>missingTestCacheDir.builder</b> to <b>timeout.builder</b>--><!--MD5=[e9b2b46d89dd68b5cb2dd125d3c93fab]
link <b>timeout.builder</b> to <b>unexpectedPayload.builder</b>--><script type="text/plantuml"><![CDATA[MD5=[e0d02cef0787ff400f18987337616373]
@startuml

scale max 1920 width
left to right direction

skinparam nodesep 15
skinparam ranksep 31
skinparam monochrome true
skinparam shadowing false
skinparam defaultFontName Tahoma
skinparam defaultFontSize 12
skinparam roundCorner 6
skinparam dpi 150
skinparam arrowColor black
skinparam arrowThickness 0.5
skinparam packageTitleAlignment left

skinparam usecase {
  borderThickness 0.5
}

skinparam rectangle {
  borderThickness 0.5
}

skinparam component {
  borderThickness 1
}


rectangle "<b>AbstractClientTest</b>" as _AbstractClientTest
rectangle "client.types" as _client_types
(<b>connectionFailed.builder</b>)
(<b>invalidPayload.builder</b>)
(<b>invalidProtocol.builder</b>)
rectangle "MercuryClientFactory" as _MercuryClientFactory
rectangle "MercurySocketIoClient" as _MercurySocketIoClient
rectangle "MercuryTestClient" as _MercuryTestClient
(<b>missingTestCacheDir.builder</b>)
rectangle "MutableContractClient" as _MutableContractClient
(<b>notConnected.builder</b>)
(<b>release.config</b>)
(socketIoEventUtil.utility)
rectangle "SpruceError" as _SpruceError
(<b>src</b>)
rectangle "src/constants" as _src_constants
rectangle "tests/constants" as _tests_constants
(<b>timeout.builder</b>)
(<b>unexpectedPayload.builder</b>)

package "Dependencies" {
  [fs-extra]
  [jsonfile]
}

_AbstractClientTest -[thickness=1]> _client_types
_AbstractClientTest --[thickness=1]> _MercuryClientFactory
_AbstractClientTest --[thickness=1]> _SpruceError
_AbstractClientTest -[thickness=1]> _tests_constants
_MercuryClientFactory --> _client_types
_MercuryClientFactory --> _MercuryTestClient
_MercuryClientFactory --> _MutableContractClient
_MercuryClientFactory --> _SpruceError
_MercuryClientFactory --> _src_constants
_MercurySocketIoClient --> _client_types
_MercurySocketIoClient --> (socketIoEventUtil.utility)
_MercurySocketIoClient --> _SpruceError
_MercuryTestClient --> _MutableContractClient
_MutableContractClient --> _MercurySocketIoClient
(<b>src</b>) -[thickness=1]> _client_types
(<b>src</b>) -[thickness=1]> _MercuryClientFactory

@enduml


' View and edit on https://arkit.pro
]]></script></g></svg>